<?xml version="1.0"?>
<svg xmlns="http://www.w3.org/2000/svg" height="512px" viewBox="0 0 64 64" width="512px" class=""><g><path d="m7 21h2v12h-2z" fill="#ad6327" data-original="#AD6327" class=""/><path d="m55 21h2v12h-2z" fill="#ad6327" data-original="#AD6327" class=""/><path d="m60.97 33a28.99 28.99 0 0 1 -28.97 28 27.547 27.547 0 0 1 -3.77-.25 29.009 29.009 0 0 1 -25.2-27.75z" fill="#2d75bb" data-original="#2D75BB" class=""/><path d="m16.34 39.45-2 4 2 3 4 2-3 5-3-1-2.57.31a28.871 28.871 0 0 1 -8.74-19.76h18.31v2.45l-3 1v2z" fill="#c8d952" data-original="#C8D952" class="" style="fill:#C8D952"/><path d="m43 40v4l-3 2 2 3 3-1 4 1 2-5-3-3 5-4-1.6-4h-10.4l-1 4z" fill="#c8d952" data-original="#C8D952" class="" style="fill:#C8D952"/><path d="m46.96 56.84a28.841 28.841 0 0 1 -14.96 4.16 27.547 27.547 0 0 1 -3.77-.25l1.77-3.53v-4l2-3 2 1 1 2 2 2h4l3-2z" fill="#c8d952" data-original="#C8D952" class="" style="fill:#C8D952"/><path d="m13.28 51.043a25.741 25.741 0 0 1 -7.095-14.924l1.986-.238a23.759 23.759 0 0 0 6.549 13.774z" fill="#f4f4e6" data-original="#F4F4E6" class=""/><path d="m20 3h12v30h-12z" fill="#cfdfe8" data-original="#CFDFE8" class="active-path" style="fill:#953DC7" data-old_color="#cfdfe8"/><path d="m32 9h12v24h-12z" fill="#aabece" data-original="#AABECE" class="" data-old_color="#aabece" style="fill:#8D3BEB99"/><g fill="#fff69a"><path d="m27 6h2v2h-2z" data-original="#FFF69A" class="" style="fill:#FF9F1C" data-old_color="#FFF69A"/><path d="m23 6h2v2h-2z" data-original="#FFF69A" class="" style="fill:#FF9F1C" data-old_color="#FFF69A"/><path d="m27 10h2v2h-2z" data-original="#FFF69A" class="" style="fill:#FF9F1C" data-old_color="#FFF69A"/><path d="m23 10h2v2h-2z" data-original="#FFF69A" class="" style="fill:#FF9F1C" data-old_color="#FFF69A"/><path d="m27 14h2v2h-2z" data-original="#FFF69A" class="" style="fill:#FF9F1C" data-old_color="#FFF69A"/><path d="m23 14h2v2h-2z" data-original="#FFF69A" class="" style="fill:#FF9F1C" data-old_color="#FFF69A"/><path d="m27 18h2v2h-2z" data-original="#FFF69A" class="" style="fill:#FF9F1C" data-old_color="#FFF69A"/><path d="m23 18h2v2h-2z" data-original="#FFF69A" class="" style="fill:#FF9F1C" data-old_color="#FFF69A"/><path d="m27 22h2v2h-2z" data-original="#FFF69A" class="" style="fill:#FF9F1C" data-old_color="#FFF69A"/><path d="m23 22h2v2h-2z" data-original="#FFF69A" class="" style="fill:#FF9F1C" data-old_color="#FFF69A"/><path d="m27 26h2v2h-2z" data-original="#FFF69A" class="" style="fill:#FF9F1C" data-old_color="#FFF69A"/><path d="m23 26h2v2h-2z" data-original="#FFF69A" class="" style="fill:#FF9F1C" data-old_color="#FFF69A"/><path d="m39 12h2v2h-2z" data-original="#FFF69A" class="" style="fill:#FF9F1C" data-old_color="#FFF69A"/><path d="m35 12h2v2h-2z" data-original="#FFF69A" class="" style="fill:#FF9F1C" data-old_color="#FFF69A"/><path d="m39 16h2v2h-2z" data-original="#FFF69A" class="" style="fill:#FF9F1C" data-old_color="#FFF69A"/><path d="m35 16h2v2h-2z" data-original="#FFF69A" class="" style="fill:#FF9F1C" data-old_color="#FFF69A"/><path d="m39 20h2v2h-2z" data-original="#FFF69A" class="" style="fill:#FF9F1C" data-old_color="#FFF69A"/><path d="m35 20h2v2h-2z" data-original="#FFF69A" class="" style="fill:#FF9F1C" data-old_color="#FFF69A"/><path d="m39 24h2v2h-2z" data-original="#FFF69A" class="" style="fill:#FF9F1C" data-old_color="#FFF69A"/><path d="m35 24h2v2h-2z" data-original="#FFF69A" class="" style="fill:#FF9F1C" data-old_color="#FFF69A"/><path d="m39 28h2v2h-2z" data-original="#FFF69A" class="" style="fill:#FF9F1C" data-old_color="#FFF69A"/><path d="m35 28h2v2h-2z" data-original="#FFF69A" class="" style="fill:#FF9F1C" data-old_color="#FFF69A"/></g><path d="m12 18c-.065 0-.125.016-.19.019a2.969 2.969 0 0 0 .19-1.019 3 3 0 0 0 -6 0 2.969 2.969 0 0 0 .19 1.019c-.064-.004-.125-.019-.19-.019a3 3 0 1 0 2.163 5.07 3.993 3.993 0 1 0 3.837-5.07z" fill="#55b56a" data-original="#55B56A" class="" style="fill:#55B56A"/><path d="m52 18c.065 0 .125.016.19.019a2.969 2.969 0 0 1 -.19-1.019 3 3 0 0 1 6 0 2.969 2.969 0 0 1 -.19 1.019c.064 0 .125-.019.19-.019a3 3 0 1 1 -2.163 5.07 3.993 3.993 0 1 1 -3.837-5.07z" fill="#55b56a" data-original="#55B56A" class="" style="fill:#55B56A"/></g> </svg>
