<?xml version="1.0"?>
<svg xmlns="http://www.w3.org/2000/svg" height="512px" viewBox="0 0 64 64" width="512px" class=""><g><g id="Smartphone-Control-Home-Car-Camera"><path d="m36 26v22a4 4 0 0 1 -4 4h-10a3.822 3.822 0 0 1 -.68-.06 3.99 3.99 0 0 1 -3.32-3.94v-22a4 4 0 0 1 4-4h10a4 4 0 0 1 4 4z" fill="#5aaae7" data-original="#5AAAE7" class="" style="fill:#5AAAE7" data-old_color="#5aaae7"/><path d="m36 29.11v18.89a4 4 0 0 1 -4 4h-10a3.822 3.822 0 0 1 -.68-.06z" fill="#3d9ae2" data-original="#3D9AE2" class=""/><path d="m45 51v10h5 4 5v-10z" fill="#ff9811" data-original="#FF9811" class="" style="fill:#FF9811"/><path d="m19 9.01.01-6-4.01-.01v6 6h3l6 .01h2.99l.01-6z" fill="#ff9811" data-original="#FF9811" class="" style="fill:#FF9811"/><path d="m14 9h-11l-.01 5.99h3.01l6 .01h3v-6z" fill="#ff9811" data-original="#FF9811" class="" style="fill:#FF9811"/><path d="m61 7v9a1 1 0 0 1 -1 1h-18a1 1 0 0 1 -1-1v-9a1 1 0 0 1 1-1h3l2-3h8l2 3h3a1 1 0 0 1 1 1z" fill="#acabb1" data-original="#ACABB1" class="" style="fill:#8D3BEB" data-old_color="#acabb1"/><path d="m58 45 3 6h-2-14-2l3-6z" fill="#ff5023" data-original="#FF5023" class="" style="fill:#8D3BEB" data-old_color="#ff5023"/><path d="m50 55h4v6h-4z" fill="#e6e7e8" data-original="#E6E7E8" class="active-path" style="fill:#E6E7E8" data-old_color="#e6e7e8"/><circle cx="51" cy="10" fill="#e6e7e8" r="3" data-original="#E6E7E8" class="active-path" style="fill:#E6E7E8" data-old_color="#e6e7e8"/><path d="m31.14 46.75a1.861 1.861 0 0 1 -.07.52l-1.27 4.73h-5.56a1.973 1.973 0 0 0 1.81-1.46l1.16-4.3a2 2 0 0 1 3.93.51z" fill="#1e81ce" data-original="#1E81CE"/><path d="m27 9.01h-8l.01-6z" fill="#e6e7e8" data-original="#E6E7E8" class="active-path" style="fill:#E6E7E8" data-old_color="#e6e7e8"/><path d="m21 12a3 3 0 1 0 3 3.01v-.01a3 3 0 0 0 -3-3z" fill="#787680" data-original="#787680" class="" style="fill:#8D3BEB" data-old_color="#787680"/><path d="m15 3v6h-1-11l.01-6.01z" fill="#d1d3d4" data-original="#D1D3D4" class=""/><path d="m9 12a2.994 2.994 0 0 0 -3 2.99v.01a3 3 0 1 0 3-3z" fill="#787680" data-original="#787680" class="" style="fill:#8D3BEB" data-old_color="#787680"/><path d="m22.43 51.05-2.43-4.05v-11h-2v12a3.99 3.99 0 0 0 3.32 3.94 3.822 3.822 0 0 0 .68.06h1.98a1.958 1.958 0 0 1 -1.55-.95z" fill="#3d9ae2" data-original="#3D9AE2" class=""/><path d="m27.66 42.82a2 2 0 0 0 -2.45 1.42l-1.16 4.3a1.981 1.981 0 0 1 -1.92 1.47h-.02a1.96 1.96 0 0 1 -1.68-.96l-2.43-4.05v-9a6 6 0 0 0 -6 6v12l1 4v3h12v-2l2-3v-2.21a6.216 6.216 0 0 1 .2-1.55l.06-.24 1.81-6.73a1.861 1.861 0 0 0 .07-.52 2 2 0 0 0 -1.48-1.93z" fill="#ffc477" data-original="#FFC477" class=""/><path d="m45 51h14v2h-14z" fill="#ee8700" data-original="#EE8700" class=""/><path d="m26 25h6v2h-6z" fill="#3d9ae2" data-original="#3D9AE2" class=""/><path d="m22 25h2v2h-2z" fill="#3d9ae2" data-original="#3D9AE2" class=""/><g fill="#ff9811"><path d="m26 38h2v2h-2z" data-original="#FF9811" class="" style="fill:#FF9811"/><path d="m29.121 36.878a3.074 3.074 0 0 0 -4.242 0l-1.414-1.414a5 5 0 0 1 7.07 0z" data-original="#FF9811" class="" style="fill:#FF9811"/><path d="m31.95 34.05a7.011 7.011 0 0 0 -9.9 0l-1.414-1.414a9.01 9.01 0 0 1 12.728 0z" data-original="#FF9811" class="" style="fill:#FF9811"/><path d="m44 29h-5v-2h4.586l6.707-6.707 1.414 1.414-7 7a1 1 0 0 1 -.707.293z" data-original="#FF9811" class="" style="fill:#FF9811"/><path d="m50.293 41.707-6.707-6.707h-4.586v-2h5a1 1 0 0 1 .707.293l7 7z" data-original="#FF9811" class="" style="fill:#FF9811"/><path d="m15 32h-4a1 1 0 0 1 -1-1v-10h2v9h3z" data-original="#FF9811" class="" style="fill:#FF9811"/></g></g></g> </svg>
