<?xml version="1.0"?>
<svg xmlns="http://www.w3.org/2000/svg" id="Capa_1" enable-background="new 0 0 511.996 511.996" height="512px" viewBox="0 0 511.996 511.996" width="512px" class=""><g><path d="m433.215 215.056c-.062 0-.124 0-.185.001-1.675.014-3.165-.968-3.818-2.494-5.621-13.143-18.763-22.366-34.089-22.366s-28.468 9.224-34.089 22.366c-.653 1.526-2.143 2.508-3.818 2.494-.062 0-.124-.001-.186-.001-8.981 0-16.814 4.803-21.067 11.944 13.853 1.247 25.499 10.037 30.701 22.198.653 1.527 2.143 2.508 3.818 2.494.062 0 .123-.001.185-.001 8.909 0 16.685 4.729 20.961 11.776h41.036c13.71 0 25.262-11.106 25.001-24.673-.252-13.153-11.102-23.738-24.45-23.738z" fill="#b1dbfc" data-original="#B1DBFC" class="" style="fill:#B1DBFC" data-old_color="#b1dbfc"/><path d="m369.711 238.793c.252-13.152 11.103-23.737 24.451-23.737h.186c1.675.014 3.165-.968 3.818-2.494 3.139-7.338 8.625-13.449 15.523-17.421-5.457-3.142-11.797-4.946-18.566-4.946-15.327 0-28.468 9.224-34.089 22.367-.653 1.526-2.143 2.508-3.818 2.494-.062 0-.124 0-.186 0-8.981 0-16.814 4.803-21.067 11.944 13.853 1.247 25.499 10.037 30.701 22.198.653 1.527 2.143 2.508 3.818 2.494h.186c.936 0 1.856.063 2.764.165-2.428-3.796-3.813-8.275-3.721-13.064z" fill="#8bcaff" data-original="#8BCAFF" class=""/><path d="m371.355 251.204c-.062 0-.123 0-.184.001-1.662.013-3.14-.96-3.788-2.475-5.577-13.038-18.614-22.189-33.819-22.189s-28.242 9.151-33.819 22.189c-.648 1.514-2.126 2.488-3.788 2.475-.061-.001-.123-.001-.184-.001-4.145 0-8.046 2.044-11.459 3.857h17.815c5.023 0 8.08 4.072 8.08 9.095v35.075h60.599c13.602 0 25.062-11.018 24.804-24.478-.249-13.048-11.014-23.549-24.257-23.549z" fill="#dfebfa" data-original="#DFEBFA" class="" style="fill:#DFEBFA" data-old_color="#dfebfa"/><path d="m312.244 274.754c.25-13.048 11.015-23.549 24.257-23.549h.184c1.662.013 3.14-.96 3.788-2.475 2.812-6.576 7.527-12.158 13.455-16.081-5.827-3.855-12.827-6.108-20.364-6.108-15.205 0-28.242 9.15-33.819 22.189-.648 1.515-2.126 2.488-3.788 2.475-.061 0-.123 0-.184 0-4.145 0-8.046 2.044-11.459 3.857h17.815c5.023 0 8.08 4.072 8.08 9.095v35.075h26.838c-13.602 0-25.061-11.017-24.803-24.478z" fill="#b1dbfc" data-original="#B1DBFC" class="" style="fill:#B1DBFC" data-old_color="#b1dbfc"/><path d="m155.324 336.17h-45.613c-3.854 0-6.978 3.124-6.978 6.978v42.118h59.569v-42.118c0-3.853-3.124-6.978-6.978-6.978z" fill="#6c7ed6" data-original="#6C7ED6" class="" style="fill:#C99CFC" data-old_color="#6c7ed6"/><path d="m140.157 336.171h-30.446c-3.854 0-6.978 3.124-6.978 6.978v42.118h30.446v-42.118c0-3.854 3.124-6.978 6.978-6.978z" fill="#4f67d2" data-original="#4F67D2" class="" style="fill:#8517FF" data-old_color="#4f67d2"/><path d="m186.123 383.237h-106.197c-3.854 0-6.978 3.124-6.978 6.978v114.169h120.153v-114.169c0-3.854-3.124-6.978-6.978-6.978z" fill="#4f67d2" data-original="#4F67D2" class="" style="fill:#8517FF" data-old_color="#4f67d2"/><path d="m110.372 383.237h-30.446c-3.854 0-6.978 3.124-6.978 6.978v114.169h30.446v-114.169c0-3.854 3.125-6.978 6.978-6.978z" fill="#324ccc" data-original="#324CCC" class="active-path" style="fill:#641EB5" data-old_color="#324ccc"/><g fill="#6c7ed6"><path d="m166.295 426.785h-67.555c-4.204 0-7.612-3.408-7.612-7.612s3.408-7.612 7.612-7.612h67.555c4.204 0 7.612 3.408 7.612 7.612s-3.409 7.612-7.612 7.612z" data-original="#6C7ED6" class="" style="fill:#C99CFC" data-old_color="#6C7ED6"/><path d="m166.295 456.059h-67.555c-4.204 0-7.612-3.408-7.612-7.612s3.408-7.612 7.612-7.612h67.555c4.204 0 7.612 3.408 7.612 7.612-.001 4.204-3.409 7.612-7.612 7.612z" data-original="#6C7ED6" class="" style="fill:#C99CFC" data-old_color="#6C7ED6"/><path d="m166.295 485.333h-67.555c-4.204 0-7.612-3.408-7.612-7.612s3.408-7.612 7.612-7.612h67.555c4.204 0 7.612 3.408 7.612 7.612-.001 4.204-3.409 7.612-7.612 7.612z" data-original="#6C7ED6" class="" style="fill:#C99CFC" data-old_color="#6C7ED6"/></g><path d="m251.655 264.878c-4.204 0-7.612-3.408-7.612-7.612v-53.373c0-4.204 3.408-7.612 7.612-7.612s7.612 3.408 7.612 7.612v53.373c0 4.204-3.408 7.612-7.612 7.612z" fill="#b1dbfc" data-original="#B1DBFC" class="" style="fill:#B1DBFC" data-old_color="#b1dbfc"/><path d="m384.113 396.393-26.455-29.188c-1.589-1.753-3.844-2.753-6.21-2.753h-32.858c-4.629 0-8.381 3.752-8.381 8.381v131.551h76.075v-102.362c0-2.081-.773-4.087-2.171-5.629z" fill="#fee55a" data-original="#FEE55A" class="" style="fill:#641EB5" data-old_color="#fee55a"/><path d="m349.036 364.453h-30.446c-4.629 0-8.381 3.752-8.381 8.381v131.551h30.446v-131.552c.001-4.628 3.753-8.38 8.381-8.38z" fill="#ffd301" data-original="#FFD301" class="" style="fill:#A559E0" data-old_color="#ffd301"/><path d="m302.13 254.047h-100.949c-5.023 0-9.095 4.072-9.095 9.095v241.242h119.138v-241.242c0-5.023-4.072-9.095-9.094-9.095z" fill="#dfebfa" data-original="#DFEBFA" class="" style="fill:#DFEBFA" data-old_color="#dfebfa"/><path d="m231.627 254.047h-30.446c-5.023 0-9.095 4.072-9.095 9.095v241.242h30.446v-241.242c0-5.023 4.073-9.095 9.095-9.095z" fill="#b1dbfc" data-original="#B1DBFC" class="" style="fill:#B1DBFC" data-old_color="#b1dbfc"/><path d="m223.417 475.325c-4.204 0-7.612-3.408-7.612-7.612v-172.11c0-4.204 3.408-7.612 7.612-7.612s7.612 3.408 7.612 7.612v172.11c-.001 4.204-3.409 7.612-7.612 7.612z" fill="#695d67" data-original="#695D67" class="" style="fill:#8D3BEB99" data-old_color="#695d67"/><path d="m251.655 475.325c-4.204 0-7.612-3.408-7.612-7.612v-172.11c0-4.204 3.408-7.612 7.612-7.612s7.612 3.408 7.612 7.612v172.11c0 4.204-3.408 7.612-7.612 7.612z" fill="#695d67" data-original="#695D67" class="" style="fill:#8D3BEB99" data-old_color="#695d67"/><path d="m279.894 475.325c-4.204 0-7.612-3.408-7.612-7.612v-172.11c0-4.204 3.408-7.612 7.612-7.612s7.612 3.408 7.612 7.612v172.11c0 4.204-3.408 7.612-7.612 7.612z" fill="#695d67" data-original="#695D67" class="" style="fill:#8D3BEB99" data-old_color="#695d67"/><path d="m399.091 511.996h-337.153c-4.204 0-7.612-3.408-7.612-7.612s3.408-7.612 7.612-7.612h337.153c4.204 0 7.612 3.408 7.612 7.612s-3.409 7.612-7.612 7.612z" fill="#b1dbfc" data-original="#B1DBFC" class="" style="fill:#B1DBFC" data-old_color="#b1dbfc"/><path d="m386.284 411.562h-37.53c-4.204 0-7.612 3.408-7.612 7.612s3.408 7.612 7.612 7.612h37.53z" fill="#ffa85d" data-original="#FFA85D" class="" style="fill:#DBBBFF" data-old_color="#ffa85d"/><path d="m386.284 440.836h-37.53c-4.204 0-7.612 3.408-7.612 7.612s3.408 7.612 7.612 7.612h37.53z" fill="#ffa85d" data-original="#FFA85D" class="" style="fill:#DBBBFF" data-old_color="#ffa85d"/><path d="m386.284 470.11h-37.53c-4.204 0-7.612 3.408-7.612 7.612s3.408 7.612 7.612 7.612h37.53z" fill="#ffa85d" data-original="#FFA85D" class="" style="fill:#DBBBFF" data-old_color="#ffa85d"/><path d="m346.352 72.046c-25.295-25.295-58.925-39.224-94.696-39.224s-69.402 13.93-94.696 39.224c-6.409 6.409-16.8 6.409-23.208 0-6.409-6.409-6.409-16.799 0-23.208 31.492-31.494 73.365-48.838 117.904-48.838s86.411 17.344 117.904 48.838c6.409 6.409 6.409 16.8 0 23.208-6.404 6.403-16.793 6.415-23.208 0z" fill="#60b8fe" data-original="#60B8FE" class="" data-old_color="#60b8fe" style="fill:#FF9F1C"/><path d="m295.802 122.596c-24.343-24.343-63.951-24.342-88.293-.001-6.408 6.409-16.799 6.409-23.208 0s-6.409-16.799 0-23.208c37.139-37.14 97.569-37.14 134.709 0 6.409 6.408 6.409 16.799.001 23.208-6.409 6.41-16.801 6.409-23.209.001z" fill="#60b8fe" data-original="#60B8FE" class="" data-old_color="#60b8fe" style="fill:#FF9F1C"/><path d="m251.657 178.144c-9.055 0-16.411-7.384-16.411-16.411 0-9.746 8.539-17.306 18.019-16.323 7.947.649 14.803 7.604 14.803 16.323-.001 8.995-7.316 16.411-16.411 16.411z" fill="#60b8fe" data-original="#60B8FE" class="" data-old_color="#60b8fe" style="fill:#FF9F1C"/><path d="m369.56 55.636c-6.403 6.403-16.793 6.415-23.208 0-25.294-25.295-58.925-39.224-94.696-39.224s-69.402 13.93-94.696 39.224c-6.409 6.409-16.8 6.409-23.208 0-1.037-1.037-1.889-2.187-2.59-3.399-3.632 6.277-2.781 14.437 2.59 19.809 6.409 6.409 16.8 6.409 23.208 0 25.294-25.295 58.925-39.225 94.696-39.225s69.402 13.93 94.696 39.225c6.415 6.415 16.805 6.403 23.208 0 5.371-5.371 6.223-13.532 2.59-19.809-.702 1.212-1.553 2.361-2.59 3.399z" fill="#23a8fe" data-original="#23A8FE" class="" style="fill:#FF9F1C" data-old_color="#23a8fe"/><path d="m319.011 106.185c-6.409 6.409-16.8 6.409-23.208 0-24.343-24.342-63.951-24.342-88.293 0-6.408 6.409-16.799 6.409-23.208 0-1.037-1.037-1.889-2.187-2.59-3.399-3.632 6.277-2.781 14.438 2.59 19.809 6.409 6.409 16.8 6.409 23.208 0 24.343-24.341 63.951-24.342 88.293 0 6.408 6.408 16.799 6.409 23.208 0 5.371-5.371 6.222-13.532 2.59-19.809-.702 1.213-1.553 2.362-2.59 3.399z" fill="#23a8fe" data-original="#23A8FE" class="" style="fill:#FF9F1C" data-old_color="#23a8fe"/><path d="m251.657 161.734c-6.061 0-11.347-3.317-14.189-8.211-1.404 2.405-2.222 5.202-2.222 8.21 0 9.027 7.356 16.411 16.411 16.411 9.095 0 16.411-7.416 16.411-16.411 0-3.009-.831-5.799-2.227-8.201-2.837 4.882-8.107 8.202-14.184 8.202z" fill="#23a8fe" data-original="#23A8FE" class="" style="fill:#FF9F1C" data-old_color="#23a8fe"/></g> </svg>
